<svg xmlns="http://www.w3.org/2000/svg" version="1.0" width="200.000000pt" height="200.000000pt" viewBox="0 0 200.000000 200.000000" preserveAspectRatio="xMidYMid meet">

<g transform="translate(0.000000,200.000000) scale(0.100000,-0.100000)" fill="#bb86fc" stroke="none">
<path d="M270 1305 l0 -605 228 -2 227 -3 0 -60 0 -60 -172 -3 -173 -2 0 -55 0 -55 -55 0 -55 0 0 -185 0 -185 720 0 720 0 0 185 0 185 -55 0 -55 0 0 55 0 55 -172 2 -173 3 -3 63 -3 62 231 0 230 0 0 605 0 605 -720 0 -720 0 0 -605z m1330 0 l0 -495 -610 0 -610 0 0 495 0 495 610 0 610 0 0 -495z m-870 -940 l0 -55 -60 0 -60 0 0 -55 0 -55 -60 0 -60 0 0 55 0 55 60 0 60 0 0 55 0 55 60 0 60 0 0 -55z m220 0 l0 -55 -55 0 -55 0 0 -55 0 -55 -61 0 -60 0 3 53 3 52 58 3 57 3 0 54 0 55 55 0 55 0 0 -55z m230 0 l0 -55 -55 0 -55 0 0 -55 0 -55 -55 0 -55 0 0 55 0 55 55 0 55 0 0 55 0 55 55 0 55 0 0 -55z m240 0 l0 -55 -60 0 -60 0 0 -55 0 -55 -55 0 -55 0 0 55 0 55 55 0 55 0 0 55 0 55 60 0 60 0 0 -55z" fill="#bb86fc"/>
<path d="M490 1630 l0 -60 55 0 55 0 0 -55 0 -55 -55 0 -55 0 0 -270 0 -270 498 2 497 3 3 383 2 382 -500 0 -500 0 0 -60z m340 -115 l0 -55 -50 0 -50 0 0 55 0 55 50 0 50 0 0 -55z m308 3 l-3 -53 -72 -3 -73 -3 0 56 0 55 76 0 75 0 -3 -52z m-308 -228 l0 -50 -110 0 -110 0 0 50 0 50 110 0 110 0 0 -50z m380 0 l0 -50 -110 0 -110 0 0 50 0 50 110 0 110 0 0 -50z" fill="#bb86fc"/>
</g>
</svg>